<svg width="25" height="24" viewBox="0 0 25 24" fill="none" xmlns="http://www.w3.org/2000/svg">
<g id="LinkedIn" clip-path="url(#clip0_62_1245)">
<path id="Icon" d="M19.98 0H5.98004C3.21904 0 0.980042 2.239 0.980042 5V19C0.980042 21.761 3.21904 24 5.98004 24H19.98C22.742 24 24.98 21.761 24.98 19V5C24.98 2.239 22.742 0 19.98 0ZM8.98004 19H5.98004V8H8.98004V19ZM7.48004 6.732C6.51404 6.732 5.73004 5.942 5.73004 4.968C5.73004 3.994 6.51404 3.204 7.48004 3.204C8.44604 3.204 9.23004 3.994 9.23004 4.968C9.23004 5.942 8.44704 6.732 7.48004 6.732ZM20.98 19H17.98V13.396C17.98 10.028 13.98 10.283 13.98 13.396V19H10.98V8H13.98V9.765C15.376 7.179 20.98 6.988 20.98 12.241V19Z" fill="#1E1E1E"/>
</g>
<defs>
<clipPath id="clip0_62_1245">
<rect width="24" height="24" fill="white" transform="translate(0.980042)"/>
</clipPath>
</defs>
</svg>
