<svg width="625" height="145" viewBox="0 0 625 145" fill="none" xmlns="http://www.w3.org/2000/svg">
<path fill-rule="evenodd" clip-rule="evenodd" d="M14.78 110H0L45.2 0H59L104.18 110H89.28L78.42 82H26L14.78 110ZM74.07 69.0001H30L52.09 15.3601L74.07 69.0001Z" fill="#0400DB"/>
<path d="M113.18 110H125.91L127 58.9999C127 58.9999 129 45.9999 141 43.9999L147 42.9999H157.85V30.4199H141.31C141.31 30.4199 127.01 32.9999 121.01 39.9999C115.01 46.9999 114.01 56.9999 114.01 56.9999L113.19 110H113.18Z" fill="#0400DB"/>
<path d="M379.18 110H391.91L393 58.9999C393 58.9999 395 45.9999 407 43.9999L413 42.9999H423.85V30.4199H407.31C407.31 30.4199 393.01 32.9999 387.01 39.9999C381.01 46.9999 380.01 56.9999 380.01 56.9999L379.19 110H379.18Z" fill="#0400DB"/>
<path d="M167 11H179.81V30.42L206 31V42.79H180.11L180 83C180 83 181 95 193 97C193 97 197 98 208 98V110C208 110 193 110 190 109C190 109 173 106 168 90C168 90 167 83.64 167 77.32V11Z" fill="#0400DB"/>
<path d="M268 52H281.44C281.44 52 282 33 261 29C261 29 248.25 26.85 233.12 30.42C233.12 30.42 219 32 216 48C216 48 215 60 223 67C231 74 230 72 260 78C260 78 269 79 269 88C269 97 263 98 260 99C257 100 239.1 101 235.55 99C232 97 228 93 228 87H215C215 87 214 103 229 109C244 115 268.41 110 268.41 110C268.41 110 281 103 282 95C283 87 283.1 76.42 272.05 70.21C261 64 239 64 236 61C236 61 230 59 230 51C230 43 239 41 239 41C239 41 258 39 262 42C266 45 268 46 268 52Z" fill="#0400DB"/>
<path fill-rule="evenodd" clip-rule="evenodd" d="M294.01 142H294L294.01 142.01V142ZM294.01 142H306.67V103.53C306.67 103.53 315.55 111.9 323.28 111.95C323.28 111.95 341.09 113 346.05 110C346.05 110 362.01 104 363.01 91.0001C363.01 91.0001 369.01 70.1701 363.01 48.0901C363.01 48.0901 360.17 36.8501 346.59 30.4301C346.59 30.4301 326.13 25.8501 312.57 30.4301C312.57 30.4301 300.01 36.0101 296.01 48.0101C296.01 48.0101 294.01 49.4701 294.01 65.2401V142ZM322 42.0001C309 44.0001 307 57.0001 307 57.0001H306.99V80.7601C306.99 92.5301 317.99 98.0001 317.99 98.0001C324.99 101 338.99 99.0001 338.99 99.0001C350.99 94.0001 351.66 83.9801 351.66 83.9801V57.0001C350.33 46.0001 339.61 42.0001 339.61 42.0001C328.23 41.0001 322 42.0001 322 42.0001Z" fill="#0400DB"/>
<path d="M448.16 2.59009H435V19.0001H448.16V2.59009Z" fill="#0400DB"/>
<path d="M448.16 30.5901H435V109.5H448.16V30.5901Z" fill="#0400DB"/>
<path d="M464.43 109.5H478.06V56.2601C478.06 56.2601 480.38 43.1101 491.69 41.5501C503 39.9901 512 41.9901 516 45.9901C520 49.9901 521 56.9901 521 60.9901V109.49H534.14L534 55.9901C534 55.9901 533.72 35.8401 513.36 30.4101C493 24.9801 479 32.9901 479 32.9901C479 32.9901 466.86 37.4101 464.43 56.7001V109.49V109.5Z" fill="#0400DB"/>
<path fill-rule="evenodd" clip-rule="evenodd" d="M547.96 54C546.92 77 561 81 561 81C554 85 551 93 551 93C547 107 562.45 109.5 562.45 109.5L601 110C609 112 609 121 609 121C609 130 600 132 600 132H568C557 130 558 119 558 119H545C545 143 567 144 567 144C567 144 594 145 604 143C614 141 624 130 621 115C618 100 602.1 98 602.1 98H571C568 98 565 96 565 93C565 90 572.54 85.09 572.54 85.09L585 85C585 85 608 87 616 72C624 57 616 42 616 42L625 33L617 25L608 34C598 26 572 30 572 30C572 30 549 31 547.96 54ZM591.16 73.0001H576C562 72.0001 561 59.0001 561 59.0001C558 44.0001 573.67 41.0001 573.67 41.0001C573.67 41.0001 587 40.0001 593 41.0001C599 42.0001 608 48.0001 606 60.0001C604 72.0001 591.16 73.0001 591.16 73.0001Z" fill="#0400DB"/>
</svg>
