<svg width="805" height="137" viewBox="0 0 805 137" fill="none" xmlns="http://www.w3.org/2000/svg">
<path d="M121.34 26.6299H157.66L164.06 53.4099L164.92 56.9999V63.7099V99.9999H121.34V26.6299Z" fill="black"/>
<path d="M190.5 24.5002C190.5 24.5002 164.63 17.3202 164.06 53.4102L164.92 63.7102C164.92 63.7102 166.5 61.5002 195.5 68.5002L190.5 24.5002Z" fill="black"/>
<path d="M468.34 26.6299H504.66L511.06 53.4099L511.92 56.9999V63.7099V99.9999H468.34V26.6299Z" fill="black"/>
<path d="M537.501 24.5002C537.501 24.5002 511.631 17.3202 511.061 53.4102L511.921 63.7102C511.921 63.7102 513.501 61.5002 542.501 68.5002L537.501 24.5002Z" fill="black"/>
<path fill-rule="evenodd" clip-rule="evenodd" d="M0 100L25 0H91.52L115.22 100H71.64L69 87H46L43.73 100H0ZM63.99 58H51L57.61 23.92L63.99 58Z" fill="black"/>
<path d="M203.5 38.5L248.5 6.5H255.04V26.63H267.7V60.45H254.82L254.59 100H211.87L211.5 59.5L203.5 59.32V38.5Z" fill="black"/>
<path d="M345.5 29.5L349.5 55.5C349.5 55.5 332.5 47.5 317.5 49.5C317.5 49.5 314.5 49 317.5 53.25C317.5 53.25 323.18 54.5 327.84 55.5C332.5 56.5 347.5 55.5 351.5 72.5C355.5 89.5 345.5 94.5 341.5 97.5C341.5 97.5 332.51 109.5 279.01 97.5L274.5 69.5C274.5 69.5 286.5 78.5 301.5 78.5C316.5 78.5 311.5 74.5 311.5 74.5C311.5 74.5 310.5 72.5 301.5 72.5C301.5 72.5 282.5 69.5 278.5 61.5C274.5 53.5 272.5 40.5 279.5 34.5L286.5 28.5C286.5 28.5 289.43 24.34 312.47 23.92C335.51 23.5 345.5 29.5 345.5 29.5Z" fill="black"/>
<path d="M361.5 26.5H396.79L404.02 53.25V57.51V133.92H361.5V26.5Z" fill="black"/>
<path d="M431.829 23.9001C431.829 23.9001 452.499 21.5001 457.499 47.5001C462.499 73.5001 454.499 89.5001 454.499 89.5001C454.499 89.5001 448.499 101.17 434.999 102.83C434.999 102.83 421.499 106.5 410.499 93.5001C410.499 93.5001 402.549 77.9401 404.019 69.7201C404.019 69.7201 411.499 70.5001 411.499 65.5001C411.499 65.5001 412.499 60.5001 409.499 58.5001C409.499 58.5001 410.549 57.5201 404.019 57.5101C404.019 57.5101 405.499 37.5001 411.499 32.5001C411.499 32.5001 418.159 23.3001 431.829 23.9001Z" fill="black"/>
<path d="M548.5 13.5C548.5 13.5 545.5 3.5 564.5 0.5C564.5 0.5 573.5 -0.5 584.5 1.5C595.5 3.5 595.95 13.5 595.95 13.5C595.95 13.5 598.25 21.5 584.87 26.5C584.87 26.5 568.87 29.5 560.68 26.5C560.68 26.5 547.49 23.5 548.49 13.5H548.5Z" fill="black"/>
<path d="M550.5 30.5C550.5 30.5 573.08 36.5 592.79 30.5V100.69H550.5V30.5Z" fill="black"/>
<path d="M603.5 26.5H639.59L646.5 53.5V56.38V100.69H603.5V26.5Z" fill="black"/>
<path d="M674.5 24.5C674.5 24.5 694.5 21.5 696.5 44.5V100.69H653.83V57.96C653.83 57.96 649.5 55.33 646.5 58.41C646.5 58.41 645.5 31.49 663.5 25.49C663.5 25.49 670.5 23.49 674.5 24.49V24.5Z" fill="black"/>
<path d="M705.499 60.5001C705.499 60.5001 704.499 32.5001 723.499 25.5001C723.499 25.5001 734.109 21.5001 745.309 26.5001C745.309 26.5001 754.499 26.5001 761.499 50.5001V55.2101C761.499 55.2101 757.499 53.5001 755.499 55.5001C753.499 57.5001 752.499 61.5001 755.499 66.5001C755.499 66.5001 758.499 67.5001 761.499 66.5001C761.499 66.5001 761.499 83.5001 750.499 91.5001C750.499 91.5001 744.489 97.5101 733.499 97.5001C733.499 97.5001 717.499 99.5001 708.499 79.5001C708.499 79.5001 705.499 73.5001 705.499 60.5001Z" fill="black"/>
<path d="M768.83 26.5H804.4V97.56C804.4 97.56 804.5 114.5 791.5 125.5C791.5 125.5 784.15 132.61 768.82 135.06C768.82 135.06 757.5 140.5 716.5 131.5L712.5 99.5C712.5 99.5 720.5 104.5 739.5 105.5C739.5 105.5 752.46 104.88 755.98 100.69C755.98 100.69 759.5 98.68 761.5 90.59V50.5L768.82 26.5H768.83Z" fill="black"/>
</svg>
