<svg width="24" height="24" viewBox="0 0 24 24" fill="none" xmlns="http://www.w3.org/2000/svg">
<g clip-path="url(#clip0_42_28942)">
<path fill-rule="evenodd" clip-rule="evenodd" d="M15.6611 15.6631C15.8004 15.5236 15.9658 15.413 16.1479 15.3375C16.33 15.262 16.5252 15.2231 16.7223 15.2231C16.9195 15.2231 17.1146 15.262 17.2967 15.3375C17.4788 15.413 17.6443 15.5236 17.7836 15.6631L23.5586 21.4381C23.84 21.7193 23.9982 22.1009 23.9984 22.4988C23.9985 22.8967 23.8406 23.2784 23.5593 23.5598C23.2781 23.8413 22.8965 23.9995 22.4986 23.9996C22.1007 23.9998 21.719 23.8418 21.4376 23.5606L15.6626 17.7856C15.5231 17.6463 15.4125 17.4808 15.337 17.2987C15.2615 17.1166 15.2227 16.9214 15.2227 16.7243C15.2227 16.5272 15.2615 16.332 15.337 16.1499C15.4125 15.9678 15.5231 15.8024 15.6626 15.6631H15.6611Z" fill="black"/>
<path fill-rule="evenodd" clip-rule="evenodd" d="M9.75 18C10.8334 18 11.9062 17.7866 12.9071 17.372C13.9081 16.9574 14.8175 16.3497 15.5836 15.5836C16.3497 14.8175 16.9574 13.9081 17.372 12.9071C17.7866 11.9062 18 10.8334 18 9.75C18 8.66659 17.7866 7.5938 17.372 6.59286C16.9574 5.59193 16.3497 4.68245 15.5836 3.91637C14.8175 3.15029 13.9081 2.5426 12.9071 2.12799C11.9062 1.71339 10.8334 1.5 9.75 1.5C7.56196 1.5 5.46354 2.36919 3.91637 3.91637C2.36919 5.46354 1.5 7.56196 1.5 9.75C1.5 11.938 2.36919 14.0365 3.91637 15.5836C5.46354 17.1308 7.56196 18 9.75 18ZM19.5 9.75C19.5 12.3359 18.4728 14.8158 16.6443 16.6443C14.8158 18.4728 12.3359 19.5 9.75 19.5C7.16414 19.5 4.68419 18.4728 2.85571 16.6443C1.02723 14.8158 0 12.3359 0 9.75C0 7.16414 1.02723 4.68419 2.85571 2.85571C4.68419 1.02723 7.16414 0 9.75 0C12.3359 0 14.8158 1.02723 16.6443 2.85571C18.4728 4.68419 19.5 7.16414 19.5 9.75Z" fill="black"/>
</g>
<defs>
<clipPath id="clip0_42_28942">
<rect width="24" height="24" fill="white"/>
</clipPath>
</defs>
</svg>
