<svg width="171" height="38" viewBox="0 0 171 38" fill="none" xmlns="http://www.w3.org/2000/svg">
<path d="M19.88 20.12L15.04 7.8L10.16 20.12H19.88ZM29.16 31.88H24.52L21.48 24.24H8.52L5.44 31.88H0.84L13 2.04H17.36L29.16 31.88ZM43.6828 14C43.3361 13.9467 43.0161 13.9067 42.7228 13.88C42.4295 13.8267 42.1361 13.8 41.8428 13.8C40.2961 13.8 39.1495 14.56 38.4028 16.08C37.7095 17.4133 37.3628 19.0667 37.3628 21.04V31.88H33.0828V15.4C33.0828 14.3867 33.0561 13.44 33.0028 12.56C32.9761 11.6533 32.9361 10.8133 32.8828 10.04H37.2028V12.72C38.4295 10.6133 39.9895 9.56 41.8828 9.56C42.4695 9.56 43.0695 9.64 43.6828 9.8V14ZM58.2941 31.72C57.2807 32.1467 56.1341 32.36 54.8541 32.36C52.3207 32.36 50.6807 31.68 49.9341 30.32C49.3741 29.4133 49.0941 27.6667 49.0941 25.08V13.76H45.6541V9.8H49.0941V5.04L53.4141 3.64V9.8H57.6541V13.76H53.4141V26.2C53.4141 27.7467 54.1207 28.52 55.5341 28.52C56.4674 28.52 57.2807 28.3467 57.9741 28L58.2941 31.72ZM73.2653 14.4C71.5053 13.6533 69.8386 13.28 68.2653 13.28C66.052 13.28 64.9453 14.1467 64.9453 15.88C64.9453 16.6533 65.7853 17.4533 67.4653 18.28C69.892 19.48 71.452 20.36 72.1453 20.92C73.7986 22.28 74.6253 23.96 74.6253 25.96C74.6253 28.2 73.732 29.8933 71.9453 31.04C70.532 31.92 68.8386 32.36 66.8653 32.36C64.4653 32.36 62.3853 32 60.6253 31.28L61.0253 27.16C62.972 28.12 64.8786 28.6 66.7453 28.6C67.812 28.6 68.692 28.32 69.3853 27.76C70.0253 27.2533 70.3453 26.5867 70.3453 25.76C70.3453 24.6933 69.532 23.7067 67.9053 22.8C66.3853 21.9733 65.252 21.3467 64.5053 20.92C63.7586 20.4933 63.372 20.2667 63.3453 20.24C61.7186 19.0133 60.9053 17.5067 60.9053 15.72C60.9053 13.5333 61.7186 11.9067 63.3453 10.84C64.652 9.98667 66.2386 9.56 68.1053 9.56C70.1853 9.56 72.052 9.92 73.7053 10.64L73.2653 14.4ZM83.4184 37.6H79.2184V10H83.4184L83.2984 12.44C83.4051 12.3067 83.5384 12.1467 83.6984 11.96C83.8584 11.7467 84.0451 11.5333 84.2584 11.32C85.4318 10.1467 87.0184 9.56 89.0184 9.56C91.9518 9.56 94.2051 10.5467 95.7784 12.52C97.1651 14.3333 97.8584 16.8933 97.8584 20.2C97.8584 23.56 97.1251 26.2267 95.6584 28.2C94.1118 30.3067 91.8584 31.36 88.8984 31.36C86.5251 31.36 84.6984 30.4933 83.4184 28.76V37.6ZM88.5384 13.44C86.8851 13.44 85.6051 14.1333 84.6984 15.52C83.8451 16.7733 83.4184 18.4133 83.4184 20.44C83.4184 22.4133 83.8318 24.0533 84.6584 25.36C85.5918 26.7733 86.8584 27.48 88.4584 27.48C91.9251 27.48 93.6584 25.0933 93.6584 20.32C93.6584 15.7333 91.9518 13.44 88.5384 13.44ZM113.956 14C113.61 13.9467 113.29 13.9067 112.996 13.88C112.703 13.8267 112.41 13.8 112.116 13.8C110.57 13.8 109.423 14.56 108.676 16.08C107.983 17.4133 107.636 19.0667 107.636 21.04V31.88H103.356V15.4C103.356 14.3867 103.33 13.44 103.276 12.56C103.25 11.6533 103.21 10.8133 103.156 10.04H107.476V12.72C108.703 10.6133 110.263 9.56 112.156 9.56C112.743 9.56 113.343 9.64 113.956 9.8V14ZM122.288 31.88H118.008V9.48H122.288V31.88ZM122.288 5.64H118.008V0.639999H122.288V5.64ZM145.878 31.88H141.718V18.48C141.718 15.04 140.465 13.32 137.958 13.32C136.251 13.32 134.958 14 134.078 15.36C133.358 16.5333 132.998 18.04 132.998 19.88V31.88H128.838V15.6C128.838 14.56 128.811 13.5867 128.758 12.68C128.731 11.7467 128.691 10.8667 128.638 10.04H132.638V12.24C133.945 10.4533 135.878 9.56 138.438 9.56C143.398 9.56 145.878 12.32 145.878 17.84V31.88ZM161.176 13.52C157.789 13.52 156.096 15.88 156.096 20.6C156.096 24.9733 157.736 27.16 161.016 27.16C162.776 27.16 164.109 26.5467 165.016 25.32C165.843 24.1733 166.256 22.6 166.256 20.6C166.256 18.0933 165.843 16.2933 165.016 15.2C164.216 14.08 162.936 13.52 161.176 13.52ZM170.296 10.12V27.24C170.296 34.1467 166.936 37.6 160.216 37.6C157.736 37.6 155.483 37.2 153.456 36.4L153.816 32.32C155.789 33.3067 157.936 33.8 160.256 33.8C164.069 33.8 166.043 32.12 166.176 28.76L166.216 28.56C165.043 30.2133 163.309 31.04 161.016 31.04C157.896 31.04 155.509 29.8933 153.856 27.6C152.469 25.7067 151.776 23.3333 151.776 20.48C151.776 17.0933 152.509 14.4667 153.976 12.6C155.549 10.6267 157.816 9.64 160.776 9.64C163.203 9.64 165.029 10.2533 166.256 11.48V10.12H170.296Z" fill="#0400DB"/>
</svg>
