<svg width="805" height="137" viewBox="0 0 805 137" fill="none" xmlns="http://www.w3.org/2000/svg">
<path d="M121.34 26.63H157.66L164.06 53.41L164.92 57V63.71V100H121.34V26.63Z" fill="#0400DB"/>
<path d="M190.5 24.5001C190.5 24.5001 164.63 17.3201 164.06 53.4101L164.92 63.71C164.92 63.71 166.5 61.5 195.5 68.5L190.5 24.5001Z" fill="#0400DB"/>
<path d="M468.34 26.63H504.66L511.06 53.41L511.92 57V63.71V100H468.34V26.63Z" fill="#0400DB"/>
<path d="M537.5 24.5001C537.5 24.5001 511.63 17.3201 511.06 53.4101L511.92 63.71C511.92 63.71 513.5 61.5 542.5 68.5L537.5 24.5001Z" fill="#0400DB"/>
<path fill-rule="evenodd" clip-rule="evenodd" d="M0 100L25 0H91.52L115.22 100H71.64L69 87H46L43.73 100H0ZM63.99 58H51L57.61 23.92L63.99 58Z" fill="#0400DB"/>
<path d="M203.5 38.5L248.5 6.5H255.04V26.63H267.7V60.45H254.82L254.59 100H211.87L211.5 59.5L203.5 59.32V38.5Z" fill="#0400DB"/>
<path d="M345.5 29.5L349.5 55.5C349.5 55.5 332.5 47.5 317.5 49.5C317.5 49.5 314.5 49 317.5 53.25C317.5 53.25 323.18 54.5 327.84 55.5C332.5 56.5 347.5 55.5 351.5 72.5C355.5 89.5 345.5 94.5 341.5 97.5C341.5 97.5 332.51 109.5 279.01 97.5L274.5 69.5C274.5 69.5 286.5 78.5 301.5 78.5C316.5 78.5 311.5 74.5 311.5 74.5C311.5 74.5 310.5 72.5 301.5 72.5C301.5 72.5 282.5 69.5 278.5 61.5C274.5 53.5 272.5 40.5 279.5 34.5L286.5 28.5C286.5 28.5 289.43 24.34 312.47 23.92C335.51 23.5 345.5 29.5 345.5 29.5Z" fill="#0400DB"/>
<path d="M361.5 26.5H396.79L404.02 53.25V57.51V133.92H361.5V26.5Z" fill="#0400DB"/>
<path d="M431.83 23.9C431.83 23.9 452.5 21.5 457.5 47.5C462.5 73.5 454.5 89.5 454.5 89.5C454.5 89.5 448.5 101.17 435 102.83C435 102.83 421.5 106.5 410.5 93.5C410.5 93.5 402.55 77.94 404.02 69.72C404.02 69.72 411.5 70.5 411.5 65.5C411.5 65.5 412.5 60.5 409.5 58.5C409.5 58.5 410.55 57.52 404.02 57.51C404.02 57.51 405.5 37.5 411.5 32.5C411.5 32.5 418.16 23.3 431.83 23.9Z" fill="#0400DB"/>
<path d="M548.5 13.5C548.5 13.5 545.5 3.5 564.5 0.5C564.5 0.5 573.5 -0.5 584.5 1.5C595.5 3.5 595.95 13.5 595.95 13.5C595.95 13.5 598.25 21.5 584.87 26.5C584.87 26.5 568.87 29.5 560.68 26.5C560.68 26.5 547.49 23.5 548.49 13.5H548.5Z" fill="#0400DB"/>
<path d="M550.5 30.5C550.5 30.5 573.08 36.5 592.79 30.5V100.69H550.5V30.5Z" fill="#0400DB"/>
<path d="M603.5 26.5H639.59L646.5 53.5V56.38V100.69H603.5V26.5Z" fill="#0400DB"/>
<path d="M674.5 24.5C674.5 24.5 694.5 21.5 696.5 44.5V100.69H653.83V57.96C653.83 57.96 649.5 55.33 646.5 58.41C646.5 58.41 645.5 31.49 663.5 25.49C663.5 25.49 670.5 23.49 674.5 24.49V24.5Z" fill="#0400DB"/>
<path d="M705.5 60.5C705.5 60.5 704.5 32.5 723.5 25.5C723.5 25.5 734.11 21.5 745.31 26.5C745.31 26.5 754.5 26.5 761.5 50.5V55.21C761.5 55.21 757.5 53.5 755.5 55.5C753.5 57.5 752.5 61.5 755.5 66.5C755.5 66.5 758.5 67.5 761.5 66.5C761.5 66.5 761.5 83.5 750.5 91.5C750.5 91.5 744.49 97.51 733.5 97.5C733.5 97.5 717.5 99.5 708.5 79.5C708.5 79.5 705.5 73.5 705.5 60.5Z" fill="#0400DB"/>
<path d="M768.83 26.5H804.4V97.56C804.4 97.56 804.5 114.5 791.5 125.5C791.5 125.5 784.15 132.61 768.82 135.06C768.82 135.06 757.5 140.5 716.5 131.5L712.5 99.5C712.5 99.5 720.5 104.5 739.5 105.5C739.5 105.5 752.46 104.88 755.98 100.69C755.98 100.69 759.5 98.68 761.5 90.59V50.5L768.82 26.5H768.83Z" fill="#0400DB"/>
</svg>
